<svg xmlns="http://www.w3.org/2000/svg" viewBox="0 0 32 32">
  <defs>
    <linearGradient id="g" x1="0%" y1="0%" x2="100%" y2="100%">
      <stop offset="0%" style="stop-color:#3B82F6"/>
      <stop offset="100%" style="stop-color:#06B6D4"/>
    </linearGradient>
  </defs>
  <rect width="32" height="32" rx="6" fill="url(#g)"/>
  <path d="M16 6L16 6C18.2 6 20.3 6.9 21.8 8.4L21.8 8.4C23.3 9.9 24 11.8 24 14L24 14C24 18.4 20.4 22 16 22L16 22C11.6 22 8 18.4 8 14L8 14C8 11.8 8.7 9.9 10.2 8.4L10.2 8.4C11.7 6.9 13.8 6 16 6Z" fill="none" stroke="white" stroke-width="1.5"/>
  <path d="M12 14L15 17L20 11" fill="none" stroke="white" stroke-width="2" stroke-linecap="round" stroke-linejoin="round"/>
  <rect x="14" y="22" width="4" height="4" rx="1" fill="white" opacity="0.8"/>
</svg>
